<svg version="1.2" baseProfile="tiny-ps" xmlns="http://www.w3.org/2000/svg" viewBox="0 0 241 206" width="842" height="720">
	<title>per4-svg</title>
	<defs>
		<clipPath clipPathUnits="userSpaceOnUse" id="cp1">
			<path d="m-16 0h276v206h-276v-206z" />
		</clipPath>
	</defs>
	<style>
		tspan { white-space:pre }
		.s0 { fill: #ebebeb } 
		.s1 { fill: #f0f0f0 } 
		.s2 { fill: #e6e6e6 } 
		.s3 { fill: #e0e0e0 } 
		.s4 { fill: #fafafa } 
		.s5 { fill: #f5f5f5 } 
		.s6 { fill: #ffffff } 
		.s7 { fill: #263238 } 
		.s8 { fill: #f4b11b } 
		.s9 { fill: #ff8b7b } 
		.s10 { opacity: .3;fill: #000000 } 
		.s11 { opacity: .2;fill: #000000 } 
		.s12 { fill: #407bff } 
		.s13 { fill: #ff5652 } 
		.s14 { opacity: .2;fill: #ffffff } 
		.s15 { fill: #ffb573 } 
		.s16 { fill: #ed893e } 
		.s17 { opacity: .3;fill: #ffffff } 
	</style>
	<g id="Clip-Path" clip-path="url(#cp1)">
		<g id="Layer">
			<path id="Layer" class="s0" d="m260 181.17h-276v-0.14h276v0.14z" />
			<path id="Layer" class="s0" d="m232.34 190.07h-18.28v-0.14h18.28v0.14z" />
			<path id="Layer" class="s0" d="m166.83 191.57h-4.8v-0.14h4.8v0.14z" />
			<path id="Layer" class="s0" d="m213.51 184.94h-10.59v-0.14h10.59v0.14z" />
			<path id="Layer" class="s0" d="m36.8 185.87h-23.84v-0.14h23.84v0.14z" />
			<path id="Layer" class="s0" d="m45.21 185.87h-3.49v-0.14h3.49v0.14z" />
			<path id="Layer" class="s0" d="m108.28 188.2h-51.71v-0.14h51.71v0.14z" />
			<path id="Layer" fill-rule="evenodd" class="s0" d="m114.82 156.38h-106.59c-0.83 0-1.64-0.34-2.23-0.93c-0.59-0.59-0.92-1.39-0.92-2.23v-150.06c0.01-0.83 0.34-1.63 0.93-2.21c0.59-0.59 1.39-0.92 2.22-0.92h106.59c0.84 0 1.64 0.33 2.23 0.92c0.59 0.59 0.92 1.39 0.92 2.23v150.03c0 0.84-0.33 1.64-0.92 2.23c-0.59 0.59-1.39 0.93-2.23 0.93zm-106.59-156.24c-0.8 0-1.56 0.32-2.13 0.89c-0.56 0.57-0.88 1.33-0.88 2.13v150.06c0 0.8 0.32 1.57 0.88 2.13c0.56 0.57 1.33 0.88 2.13 0.89h106.59c0.8 0 1.56-0.32 2.13-0.88c0.56-0.57 0.88-1.33 0.88-2.13v-150.06c0-0.8-0.32-1.57-0.88-2.13c-0.56-0.57-1.33-0.88-2.13-0.89h-106.59z" />
			<path id="Layer" fill-rule="evenodd" class="s0" d="m234.23 156.38h-106.59c-0.84 0-1.64-0.34-2.23-0.93c-0.59-0.59-0.92-1.39-0.92-2.23v-150.06c0.01-0.83 0.34-1.63 0.93-2.21c0.59-0.59 1.39-0.92 2.22-0.92h106.59c0.83 0 1.62 0.33 2.21 0.92c0.59 0.59 0.92 1.38 0.93 2.21v150.06c0 0.84-0.33 1.64-0.92 2.23c-0.59 0.59-1.39 0.93-2.22 0.93zm-106.59-156.24c-0.8 0-1.56 0.32-2.13 0.89c-0.56 0.57-0.88 1.33-0.88 2.13v150.06c0 0.8 0.32 1.57 0.88 2.13c0.56 0.56 1.33 0.88 2.13 0.88h106.59c0.8 0 1.56-0.32 2.13-0.88c0.56-0.57 0.88-1.33 0.88-2.13v-150.06c0-0.8-0.32-1.57-0.88-2.13c-0.56-0.57-1.33-0.88-2.13-0.89h-106.59z" />
			<path id="Layer" class="s1" d="m138.57 176.43h-119.5v-63.46h119.5v63.46z" />
			<path id="Layer" class="s2" d="m21.97 173.53v-57.65h113.71v57.65h-113.71z" />
			<path id="Layer" class="s3" d="m21.97 173.53v-57.65h12.72v57.65h-12.72z" />
			<path id="Layer" class="s2" d="m138.58 176.44v-63.46h7.21v63.46h-7.21z" />
			<path id="Layer" class="s1" d="m21.97 146.25v-3.1h113.71v3.1h-113.71z" />
			<path id="Layer" class="s1" d="m26.9 181.03h-2.5l-1.23-4.6h3.73v4.6z" />
			<path id="Layer" class="s1" d="m130.74 176.43h3.73l-1.23 4.6h-2.5v-4.6z" />
			<path id="Layer" class="s2" d="m36.62 181.03h-2.49l-1.24-4.6h3.73v4.6z" />
			<path id="Layer" class="s2" d="m140.46 176.43h3.73l-1.24 4.6h-2.49v-4.6z" />
			<path id="Layer" class="s1" d="m38.3 143.16h-6.05v-25.17h6.05v25.17z" />
			<path id="Layer" class="s3" d="m38.31 117.98h16.18v25.17h-16.18v-25.17z" />
			<path id="Layer" class="s4" d="m43.68 143.16h-3.41v-22.29h3.41v22.29z" />
			<path id="Layer" class="s0" d="m43.68 120.87h9.11v22.29h-9.11v-22.29z" />
			<path id="Layer" class="s4" d="m54.05 143.16h-5.05l-2.91-21h5.05l2.91 21z" />
			<path id="Layer" class="s0" d="m51.14 122.15h13.5l2.91 21h-13.5l-2.91-21z" />
			<path id="Layer" class="s1" d="m77.35 173.53h-6.05v-18.38h6.05v18.38z" />
			<path id="Layer" class="s3" d="m77.36 155.15h8.98v18.38h-8.98v-18.38z" />
			<path id="Layer" class="s4" d="m84 173.53h-3.41v-22.29h3.41v22.29z" />
			<path id="Layer" class="s0" d="m84 151.24h9.11v22.29h-9.11v-22.29z" />
			<path id="Layer" class="s1" d="m33.75 173.53h-5.05l-2.91-21h5.05l2.91 21z" />
			<path id="Layer" class="s3" d="m30.84 152.53h13.5l2.91 21h-13.5l-2.91-21z" />
			<path id="Layer" class="s2" d="m58.7 143.15v-6.06h25.13v6.06h-25.13z" />
			<path id="Layer" class="s3" d="m83.83 143.15v-6.06h9.28v6.06h-9.28z" />
			<path id="Layer" class="s1" d="m84.65 142.47v-4.68h8.47v4.68h-8.47z" />
			<path id="Layer" class="s1" d="m60.25 137.1v-4.73h25.13v4.73h-25.13z" />
			<path id="Layer" class="s2" d="m85.38 137.1v-4.73h9.28v4.73h-9.28z" />
			<path id="Layer" class="s1" d="m86.19 136.56v-3.65h8.47v3.65h-8.47z" />
			<path id="Layer" class="s5" d="m90.86 173.53v-6.53h27.06v6.53h-27.06z" />
			<path id="Layer" class="s3" d="m117.93 173.53v-6.53h10v6.53h-10z" />
			<path id="Layer" class="s1" d="m118.8 172.79v-5.04h9.12v5.04h-9.12z" />
			<path id="Layer" class="s4" d="m94.63 161.91v-5.28h21.88v5.28h-21.88z" />
			<path id="Layer" class="s3" d="m116.51 161.91v-5.28h8.08v5.28h-8.08z" />
			<path id="Layer" class="s5" d="m117.22 161.31v-4.07h7.37v4.07h-7.37z" />
			<path id="Layer" class="s4" d="m37.81 173.51v-5.28h21.88v5.28h-21.88z" />
			<path id="Layer" class="s3" d="m59.69 173.51v-5.28h8.08v5.28h-8.08z" />
			<path id="Layer" class="s5" d="m60.4 172.91v-4.08h7.37v4.08h-7.37z" />
			<path id="Layer" class="s1" d="m92.53 167.01v-5.09h27.06v5.09h-27.06z" />
			<path id="Layer" class="s2" d="m119.59 167.01v-5.09h10v5.09h-10z" />
			<path id="Layer" class="s1" d="m120.47 166.42v-3.93h9.12v3.93h-9.12z" />
			<path id="Layer" class="s1" d="m100.85 144.13h-4.9v-20.39h4.9v20.39z" />
			<path id="Layer" class="s3" d="m100.85 123.74h13.11v20.39h-13.11v-20.39z" />
			<path id="Layer" class="s4" d="m111.69 144.13h-4.71v-18.06h4.71v18.06z" />
			<path id="Layer" class="s0" d="m111.69 126.07h8.05v18.06h-8.05v-18.06z" />
			<path id="Layer" class="s3" d="m164.35 144.25h15.98c1.83 0 3.6-0.65 5-1.83c1.4-1.18 2.34-2.82 2.65-4.62l4.23-24.33c0.48-2.73 1.9-5.21 4.02-6.99c2.12-1.78 4.8-2.76 7.57-2.76h16.05c1.08 0 2.16 0.24 3.14 0.69c0.98 0.46 1.86 1.13 2.56 1.96c0.7 0.83 1.21 1.81 1.49 2.86c0.28 1.05 0.33 2.15 0.15 3.22l-4.42 25.47c-0.47 2.73-1.9 5.21-4.02 6.99c-2.12 1.78-4.8 2.76-7.57 2.75h-50.88c0.17-0.96 0.67-1.82 1.41-2.45c0.74-0.63 1.68-0.97 2.65-0.97z" />
			<path id="Layer" class="s0" d="m208.66 147.67h1.84l3.33 33.36h-1.84l-3.33-33.36z" />
			<path id="Layer" class="s0" d="m193.94 147.67h1.84l3.32 33.36h-1.84l-3.32-33.36z" />
			<path id="Layer" class="s0" d="m195.23 147.66h14.4v1.72h-14.4v-1.72z" />
			<path id="Layer" class="s0" d="m163.53 181.03h-1.84l3.32-33.36h1.84l-3.32 33.36z" />
			<path id="Layer" class="s0" d="m178.26 181.03h-1.84l3.33-33.36h1.84l-3.32 33.36z" />
			<path id="Layer" class="s0" d="m165.91 147.66h14.4v1.72h-14.4v-1.72z" />
			<path id="Layer" class="s3" d="m64.88 104.05c0 2.37-0.94 4.64-2.61 6.32c-1.67 1.68-3.94 2.62-6.31 2.62c-2.37 0-4.63-0.94-6.31-2.62c-1.67-1.67-2.61-3.95-2.61-6.32h17.84z" />
			<path id="Layer" class="s0" d="m74.61 106.09c-0.05 1.79-0.8 3.49-2.08 4.74c-1.28 1.25-3 1.95-4.79 1.95c-1.79 0-3.51-0.7-4.79-1.95c-1.28-1.25-2.03-2.95-2.08-4.74h13.75z" />
			<path id="Layer" class="s5" d="m188.05 86.26h-129.35v-62.41h129.35v62.41z" />
			<path id="Layer" class="s4" d="m71.11 57.86c0-12.68 10.26-22.96 22.92-22.96c12.66 0 22.93 10.28 22.93 22.96c0 12.68-10.26 22.96-22.93 22.96c-12.66 0-22.92-10.28-22.92-22.96z" />
			<path id="Layer" class="s0" d="m188.88 88.87h-131.01v-4.21h131.01v4.21z" />
			<path id="Layer" class="s0" d="m146.59 28.86c0.14 0.14 0.22 0.33 0.22 0.53c0 0.2-0.08 0.39-0.22 0.53c-0.14 0.14-0.33 0.22-0.53 0.22h-45.35c-0.2 0-0.39-0.08-0.53-0.22c-0.14-0.14-0.22-0.33-0.22-0.53c0-0.2 0.08-0.39 0.22-0.53c0.14-0.14 0.33-0.22 0.53-0.22h45.35c0.2 0 0.39 0.08 0.53 0.22z" />
			<path id="Layer" class="s2" d="m80.54 39.6c0.3 2.13-0.55 7.5-0.55 7.5c0 0-5.03 0.01-7.67-0.73c0.71-1.66 0.55-7.25 0.55-7.25c0 0 6.2 0.17 7.67 0.49z" />
			<path id="Layer" class="s6" d="m80.54 39.6c0.35 2.13-1.6 7.93-1.6 7.93c-2.42-0.23-4.81-0.62-7.18-1.18c0.73-1.66 1.1-7.24 1.1-7.24c0 0 6.2 0.17 7.67 0.49z" />
			<path id="Layer" class="s2" d="m99.73 51.69c0.64 3.12-0.52 11.06-0.52 11.06c0 0-7.06 0.71-11.08-0.13c0.89-2.55 0.08-10.87 0.08-10.87c0 0 9.23-0.41 11.51-0.06z" />
			<path id="Layer" class="s6" d="m99.64 50.79c0.74 3.15-0.94 13.17-0.94 13.17c0 0-8.36 0.59-12.38-0.25c0.87-2.55 1.1-12.82 1.1-12.82c0 0 9.9-0.44 12.21-0.1z" />
			<path id="Layer" class="s2" d="m137.67 67.74c0.72 2.02 0.91 7.46 0.91 7.46c0 0-4.8 1.06-7.56 0.88c0.35-1.75-0.97-7.19-0.97-7.19c0 0 6.07-1.14 7.62-1.16z" />
			<path id="Layer" class="s6" d="m137.67 67.76c0.79 2.01 0.62 7.98 0.62 7.98c0 0-5.03 0.64-7.79 0.46c0.35-1.78-0.45-7.31-0.45-7.31c0 0 6.07-1.14 7.62-1.13z" />
			<path id="Layer" class="s2" d="m166.75 44.9c1.58 2.79 3.49 11.21 3.49 11.21c0 0-7.02 2.36-11.09 2.82c0.05-2.7-3.31-10.36-3.31-10.36c0 0 8.64-3.27 10.92-3.67z" />
			<path id="Layer" class="s6" d="m166.36 44.1c1.69 2.75 3.22 12.8 3.22 12.8c0 0-7.76 3.17-11.84 3.63c0.05-2.7-2.93-12.53-2.93-12.53c0 0 9.27-3.51 11.54-3.9z" />
			<path id="Layer" class="s2" d="m164.73 46.68c0-0.49 0.39-0.88 0.88-0.88c0.48 0 0.88 0.39 0.88 0.88c0 0.49-0.39 0.88-0.88 0.88c-0.49 0-0.88-0.39-0.88-0.88z" />
			<path id="Layer" class="s2" d="m102.57 46.94c-0.04 0-0.09-0.01-0.13-0.03c-0.06-0.03-0.11-0.09-0.14-0.16c-0.02-0.07-0.02-0.15 0.02-0.21c0.66-1.26 1.92-2.03 3.06-2.62c5.98-3.07 12.97-3.67 18.4-3.87c3.87-0.2 7.76 0 11.59 0.58c3.87 0.59 7.58 2 10.87 4.12c0.06 0.04 0.1 0.1 0.12 0.18c0.01 0.07 0 0.15-0.04 0.21c-0.04 0.06-0.1 0.1-0.18 0.12c-0.07 0.01-0.15 0-0.21-0.04c-3.23-2.09-6.86-3.46-10.66-4.04c-3.81-0.57-7.66-0.75-11.51-0.55c-5.37 0.18-12.28 0.78-18.17 3.8c-1.07 0.55-2.24 1.26-2.82 2.38c-0.02 0.04-0.05 0.07-0.09 0.1c-0.04 0.02-0.08 0.04-0.12 0.04z" />
			<path id="Layer" class="s2" d="m139.98 47.38c-0.05 0-0.09-0.01-0.13-0.04c-0.04-0.02-0.07-0.06-0.1-0.1c-0.04-0.06-0.05-0.14-0.04-0.21c0.02-0.07 0.06-0.13 0.12-0.17c0.63-0.35 1.32-0.56 2.04-0.61c2.19-0.27 4.4-0.25 6.58 0.06c-0.61-0.73-1.17-1.51-1.66-2.33c-0.28-0.42-0.48-0.89-0.59-1.38c-0.06-0.27-0.05-0.55 0.01-0.82c0.07-0.27 0.19-0.52 0.37-0.74c0.02-0.03 0.05-0.05 0.09-0.06c0.03-0.02 0.07-0.02 0.1-0.03c0.04 0 0.07 0 0.11 0.02c0.03 0.01 0.07 0.03 0.09 0.06c0.03 0.02 0.05 0.05 0.06 0.09c0.02 0.03 0.03 0.07 0.03 0.11c0 0.04 0 0.07-0.02 0.11c-0.01 0.03-0.03 0.07-0.06 0.09c-0.12 0.15-0.21 0.33-0.25 0.52c-0.04 0.19-0.04 0.39 0.01 0.58c0.1 0.43 0.28 0.83 0.52 1.19c0.6 1.01 1.31 1.96 2.11 2.82c0.04 0.04 0.06 0.1 0.07 0.15c0.01 0.06 0 0.12-0.03 0.17c-0.03 0.05-0.07 0.09-0.12 0.12c-0.05 0.02-0.11 0.03-0.17 0.02c-2.37-0.42-4.79-0.48-7.18-0.18c-0.63 0.04-1.25 0.22-1.81 0.53c-0.05 0.02-0.11 0.03-0.17 0.02z" />
			<path id="Layer" class="s2" d="m147.81 67.96c-0.07 0-0.15-0.02-0.2-0.07c-0.06-0.05-0.09-0.12-0.09-0.19c0-0.07 0.02-0.15 0.07-0.2c0.05-0.05 0.12-0.09 0.19-0.09c1.52-0.18 2.98-0.7 4.27-1.52c1.29-0.82 2.38-1.92 3.19-3.23c0.02-0.03 0.04-0.06 0.07-0.08c0.03-0.02 0.06-0.04 0.1-0.05c0.04-0.01 0.07-0.01 0.11 0c0.04 0.01 0.07 0.02 0.1 0.04c0.06 0.04 0.11 0.1 0.12 0.17c0.02 0.07 0.01 0.15-0.03 0.21c-0.85 1.37-2 2.53-3.36 3.4c-1.36 0.87-2.9 1.42-4.5 1.61l-0.03 0.01z" />
			<path id="Layer" class="s2" d="m150.31 70.35c-2.26-0.19-4.47-0.77-6.54-1.71c-0.04-0.02-0.08-0.05-0.1-0.09c-0.03-0.04-0.05-0.08-0.05-0.13c-0.01-0.04 0-0.09 0.01-0.13c0.02-0.04 0.04-0.08 0.08-0.11c0.89-0.8 1.78-1.63 2.64-2.47c0.03-0.03 0.06-0.05 0.09-0.06c0.03-0.01 0.07-0.02 0.11-0.02c0.04 0 0.07 0.01 0.11 0.02c0.03 0.01 0.06 0.03 0.09 0.06c0.05 0.05 0.08 0.12 0.08 0.2c0 0.07-0.03 0.14-0.08 0.2c-0.76 0.74-1.55 1.48-2.34 2.21c1.89 0.82 3.91 1.32 5.96 1.49c0.07 0.01 0.14 0.04 0.19 0.1c0.05 0.06 0.07 0.13 0.07 0.2c-0.01 0.07-0.05 0.14-0.1 0.18c-0.06 0.05-0.13 0.07-0.2 0.06z" />
			<path id="Layer" class="s2" d="m119.24 74.9c-7.15 0-14.16-3.2-17.45-6.41c-0.05-0.05-0.07-0.12-0.07-0.19c0-0.07 0.03-0.14 0.08-0.19c0.05-0.05 0.12-0.08 0.18-0.08c0.07 0 0.14 0.02 0.19 0.06c4.13 4.05 14.96 8.23 23.74 5.19c0.04-0.02 0.07-0.02 0.11-0.02c0.04 0 0.08 0.01 0.11 0.02c0.03 0.02 0.07 0.04 0.09 0.07c0.03 0.03 0.05 0.06 0.06 0.1c0.01 0.04 0.02 0.07 0.01 0.11c0 0.04-0.01 0.08-0.03 0.11c-0.02 0.03-0.04 0.06-0.07 0.09c-0.03 0.02-0.06 0.04-0.1 0.05c-2.21 0.75-4.53 1.12-6.86 1.1z" />
			<path id="Layer" class="s2" d="m102.9 72.88c-0.05 0-0.09-0.01-0.13-0.03c-0.04-0.02-0.08-0.05-0.1-0.09c-1.27-1.88-2.2-3.97-2.76-6.16c-0.01-0.05-0.01-0.09 0-0.14c0.01-0.05 0.03-0.09 0.06-0.12c0.03-0.03 0.07-0.06 0.11-0.07c0.04-0.01 0.09-0.02 0.14-0.01c1.18 0.19 2.38 0.36 3.57 0.51c0.04 0 0.07 0.02 0.1 0.03c0.03 0.02 0.06 0.04 0.08 0.07c0.02 0.03 0.04 0.06 0.05 0.1c0.01 0.03 0.01 0.07 0.01 0.11c-0.01 0.07-0.04 0.14-0.1 0.18c-0.06 0.05-0.13 0.07-0.2 0.06c-1.05-0.13-2.12-0.28-3.17-0.44c0.55 1.99 1.42 3.88 2.58 5.58c0.02 0.03 0.04 0.06 0.04 0.1c0.01 0.04 0.01 0.07 0 0.11c-0.01 0.04-0.02 0.07-0.04 0.1c-0.02 0.03-0.05 0.06-0.08 0.08c-0.05 0.03-0.11 0.05-0.17 0.05z" />
			<path id="Layer" class="s5" d="m14.97 199.74c0-3.46 47.92-6.26 107.03-6.26c59.11 0 107.03 2.8 107.03 6.26c0 3.46-47.92 6.26-107.03 6.26c-59.11 0-107.03-2.8-107.03-6.26z" />
			<path id="Layer" class="s7" d="m97.18 64.22c0-3.43 2.78-6.22 6.21-6.22c3.43 0 6.21 2.78 6.21 6.22c0 3.44-2.78 6.22-6.21 6.22c-3.43 0-6.21-2.78-6.21-6.22z" />
			<path id="Layer" class="s8" d="m104.04 64.99c-1.66 1.52-4.05 1.61-5.33 0.2c-1.29-1.41-0.99-3.8 0.66-5.3c1.66-1.5 4.05-1.61 5.33-0.2c1.29 1.41 0.99 3.78-0.66 5.3z" />
			<path id="Layer" class="s7" d="m89.61 66.9c-2.25-2.26-2.25-5.91 0-8.17c2.25-2.26 5.91-2.26 8.16 0c2.25 2.26 2.25 5.91 0 8.17c-2.25 2.26-5.91 2.26-8.16 0z" />
			<path id="Layer" class="s9" d="m87.42 76.82c-0.62 1.66-1.31 3.1-2.05 4.61c-0.74 1.51-1.58 2.95-2.47 4.37c-0.89 1.45-1.87 2.83-2.95 4.15c-0.54 0.66-1.11 1.31-1.72 1.94c-0.3 0.32-0.61 0.62-0.93 0.93c-0.15 0.15-0.33 0.3-0.49 0.45l-0.25 0.23c-0.16 0.14-0.34 0.27-0.52 0.39c-0.41 0.26-0.87 0.44-1.36 0.51c-0.43 0.06-0.87 0.05-1.3-0.04c-0.62-0.14-1.21-0.4-1.73-0.76c-0.77-0.55-1.46-1.2-2.06-1.92c-1.07-1.28-2.03-2.64-2.87-4.07c-1.63-2.77-3.05-5.65-4.26-8.63l2.03-1.03c0.8 1.31 1.62 2.64 2.47 3.93c0.85 1.29 1.7 2.58 2.61 3.79c0.85 1.2 1.8 2.34 2.82 3.41c0.43 0.45 0.92 0.85 1.45 1.18c0.13 0.08 0.27 0.14 0.42 0.16c0 0-0.03 0-0.12 0c-0.09 0.01-0.17 0.04-0.24 0.08h-0.04c0 0-0.03 0.03 0 0l0.19-0.19c0.13-0.13 0.26-0.25 0.38-0.39c0.25-0.26 0.5-0.53 0.75-0.81c0.49-0.55 0.95-1.14 1.4-1.75c0.89-1.21 1.72-2.49 2.51-3.81c0.79-1.32 1.5-2.69 2.21-4.07c0.71-1.38 1.34-2.83 1.9-4.17l4.22 1.54z" />
			<path id="Layer" class="s7" d="m90.49 78.28c-0.65 1.3-2.57 3.54-4.08 5.2c-1.1 1.19-1.95 2.08-1.95 2.08l-0.67-0.55l-5.52-4.77c1.59-3.37 3.58-6.96 7.95-7.55c2.73-0.39 5.42 3.28 4.27 5.59z" />
			<path id="Layer" class="s10" d="m86.41 83.51c-1.1 1.19-1.95 2.08-1.95 2.08l-0.67-0.55c0.55-1.36 1.5-3.47 2.55-4.23c0.22 0.89 0.24 1.81 0.07 2.71z" />
			<path id="Layer" class="s9" d="m62.93 79.74c-1.2-1.35-2.11-4.42-2.11-4.42l4.64-0.18l-0.69 3.81l-1.84 0.79z" />
			<path id="Layer" class="s9" d="m65.46 75.13l-4.64 0.18l-0.07-1.15l3.44-0.77l1.27 1.74z" />
			<path id="Layer" class="s9" d="m93.53 195.45l-4.48 0.42l0.08-10.23l4.48-0.42l-0.08 10.23z" />
			<path id="Layer" class="s9" d="m117.23 193.31l-4.41 0.67l-2.7-9.97l4.41-0.67l2.7 9.97z" />
			<path id="Layer" class="s7" d="m112.06 192.35l4.92-1.01c0.08-0.02 0.17-0.01 0.24 0.03c0.07 0.04 0.13 0.11 0.15 0.19l1.25 3.76c0.03 0.1 0.03 0.2 0.02 0.3c-0.01 0.1-0.05 0.19-0.1 0.28c-0.05 0.09-0.12 0.16-0.2 0.22c-0.08 0.06-0.17 0.1-0.27 0.12c-1.72 0.32-2.56 0.39-4.72 0.83c-1.33 0.28-4.24 1.07-6.07 1.45c-1.83 0.38-2.25-1.41-1.52-1.74c3.31-1.44 4.65-2.82 5.64-4.02c0.17-0.21 0.4-0.36 0.67-0.41z" />
			<path id="Layer" class="s7" d="m88.56 194.54h5.28c0.09 0 0.19 0.03 0.26 0.09c0.07 0.06 0.13 0.14 0.15 0.23l1.03 4.17c0.03 0.1 0.03 0.21 0.01 0.31c-0.02 0.1-0.07 0.19-0.13 0.28c-0.06 0.08-0.15 0.15-0.24 0.19c-0.09 0.04-0.2 0.06-0.3 0.06c-1.86 0-2.76-0.13-5.06-0.13c-1.42 0-5.12 0.14-7.08 0.14c-1.97 0-2.27-1.95-1.47-2.13c3.59-0.79 5.69-1.88 6.82-2.92c0.2-0.19 0.47-0.29 0.74-0.29z" />
			<path id="Layer" class="s11" d="m93.61 185.22l-0.04 5.7h-4.48l0.04-5.28l4.48-0.42z" />
			<path id="Layer" class="s11" d="m115.93 188.49l-4.42 0.67l-1.39-5.14l4.42-0.68l1.39 5.14z" />
			<path id="Layer" class="s7" d="m105.26 99.17l-18.05 0.5c-4.24-25.98-2.24-26.71-2.24-26.71c0 0 3.1-0.75 6.22-1.22c0.47-0.07 0.95-0.14 1.41-0.19c2.72-0.27 5.46-0.35 8.2-0.23c0.4 0 0.81 0 1.21 0.04c2.17 0.12 4.32 0.38 6.46 0.76c-0.74 3.21-1.33 5.94-1.79 8.33c-0.6 3.11-0.98 5.63-1.22 7.83c-0.36 3.62-0.43 7.27-0.2 10.9z" />
			<path id="Layer" class="s10" d="m105.47 88.27c-0.87-2.71-0.74-8.37 0.27-10.22l0.95 2.39c-0.6 3.11-0.98 5.63-1.21 7.83z" />
			<path id="Layer" class="s9" d="m99.54 65.72c-0.12 2.21 0.12 4.52 1.27 5.59c0 0-1.16 5.48-7.73 8.7c-4.22-5.25-0.46-8.48-0.46-8.48c2.94-0.79 3-2.76 2.21-5.97l2.33-0.96c0.21-0.19 0.47-0.32 0.75-0.36c0.28-0.04 0.56 0 0.82 0.12c0.26 0.12 0.47 0.31 0.61 0.56c0.14 0.24 0.22 0.52 0.2 0.8z" />
			<path id="Layer" class="s11" d="m97.16 64.6c0.19-0.18 0.43-0.3 0.7-0.36c0.26-0.05 0.53-0.03 0.78 0.07c0.25 0.1 0.46 0.26 0.62 0.47c0.16 0.21 0.26 0.47 0.28 0.73c-1.04 1.6-2.56 2.85-4.33 3.55c0.09-1.18-0.04-2.37-0.38-3.51l2.34-0.96z" />
			<path id="Layer" class="s9" d="m103.83 59.15c-1.66 4.15-2.23 5.93-5.05 7.46c-4.24 2.31-8.91-0.46-8.54-4.98c0.34-4.06 2.95-10.16 7.59-10.61c1.01-0.11 2.04 0.05 2.97 0.46c0.93 0.41 1.74 1.06 2.35 1.88c0.61 0.82 0.99 1.79 1.11 2.8c0.12 1.01-0.03 2.04-0.43 2.98z" />
			<path id="Layer" class="s7" d="m101.49 55.45c-4.26 0.69-10.43-2.11-9.24-5.29c0.82-2.21 3.68-0.64 3.68-0.64c0 0 4.58-1.28 7.82 1.24c3.24 2.52 4.09 8.29-1.93 12.07c-1.9-2.13-2.07-5.76-0.33-7.38z" />
			<path id="Layer" class="s9" d="m103.5 63.36c-0.45 0.73-1.17 1.26-2 1.48c-1.1 0.28-1.59-0.71-1.24-1.73c0.32-0.92 1.29-2.17 2.37-1.99c1.08 0.18 1.42 1.33 0.87 2.24z" />
			<path id="Layer" class="s7" d="m101.71 99.19c4.11 7.89-3.19 26.42-7.18 45.89c1.25 9.85 0.19 43.12 0.19 43.12l-6.46 0.64c0 0-2.99-31.01-2.99-44.84c0-17.41 1.95-44.34 1.95-44.34l14.49-0.48z" />
			<path id="Layer" class="s12" d="m95.69 189.68l-7.97 0.12l-0.46-2.91l8.52-0.26l-0.09 3.06z" />
			<path id="Layer" class="s10" d="m102.77 107.83c0 0 0 0.21 0 0.61c-0.66 6.91-3.26 15.96-5.73 25.76c-2.42-7.78-3.76-16.16-1.73-22.2l2.12-2.37l5.34-1.81z" />
			<path id="Layer" class="s7" d="m105.26 99.18c5.78 7.9 4.43 25.36 4.63 44.84c3.36 9.86 6.12 41.46 6.12 41.46l-5.97 1.43c0 0-5.38-26.65-9.67-40.47c-2.67-17.13-9.21-46.83-9.21-46.83l14.1-0.44z" />
			<path id="Layer" class="s12" d="m108.55 185.67l8.45-1.95l0.1 3.08l-7.57 1.52l-0.98-2.65z" />
			<path id="Layer" class="s12" d="m105.53 98.1l0.82 1.59c0.06 0.13-0.09 0.26-0.29 0.27l-18.93 0.53c-0.16 0-0.3-0.07-0.3-0.17l-0.17-1.61c0-0.11 0.13-0.21 0.31-0.22l18.28-0.51c0.06-0.01 0.11 0 0.16 0.02c0.05 0.02 0.1 0.06 0.13 0.1z" />
			<path id="Layer" class="s7" d="m102.89 100.11l-0.23-2.1c0-0.06 0.07-0.12 0.17-0.12h0.49c0.1-0.01 0.19 0.04 0.19 0.1l0.23 2.1c0.01 0.06-0.07 0.12-0.16 0.12h-0.49c-0.1 0-0.18-0.04-0.19-0.11z" />
			<path id="Layer" class="s7" d="m88.31 100.54l-0.23-2.1c0-0.06 0.07-0.12 0.17-0.12h0.48c0.1 0 0.19 0.04 0.19 0.11l0.23 2.09c0.01 0.06-0.07 0.12-0.17 0.12h-0.48c-0.1 0-0.18-0.07-0.19-0.1z" />
			<path id="Layer" class="s7" d="m95.6 100.31l-0.23-2.1c0-0.06 0.07-0.12 0.17-0.12h0.49c0.1 0 0.19 0.05 0.19 0.11l0.23 2.09c0.01 0.07-0.07 0.12-0.17 0.12h-0.49c-0.1 0.01-0.18-0.04-0.19-0.11z" />
			<path id="Layer" class="s7" d="m97.28 58.5c-0.11 0.34-0.38 0.55-0.61 0.5c-0.23-0.05-0.31-0.4-0.2-0.75c0.11-0.34 0.38-0.55 0.61-0.5c0.23 0.05 0.31 0.4 0.2 0.75z" />
			<path id="Layer" class="s7" d="m93.43 57.34c-0.12 0.35-0.39 0.55-0.61 0.5c-0.22-0.05-0.31-0.4-0.2-0.75c0.12-0.35 0.38-0.55 0.6-0.5c0.22 0.06 0.31 0.38 0.2 0.74z" />
			<path id="Layer" class="s7" d="m93.32 56.65l-0.74-0.49c0 0 0.21 0.77 0.74 0.49z" />
			<path id="Layer" class="s13" d="m92.9 60.39c-0.22-0.01-0.44-0.06-0.64-0.17c-0.2-0.1-0.37-0.25-0.5-0.43c0.72-0.52 1.37-1.14 1.93-1.83l-0.79 2.42z" />
			<path id="Layer" class="s7" d="m94.01 62.28c-0.02-0.01-0.03-0.03-0.03-0.05c-0.01-0.02-0.01-0.04 0-0.06c0.01-0.03 0.03-0.05 0.06-0.06c0.03-0.01 0.05-0.02 0.08-0.01c0.43 0.14 0.88 0.17 1.32 0.1c0.44-0.07 0.86-0.24 1.22-0.5c0.01-0.01 0.02-0.02 0.04-0.03c0.01-0.01 0.03-0.01 0.04-0.01c0.02 0 0.03 0 0.04 0.01c0.01 0.01 0.02 0.02 0.03 0.03c0.01 0.01 0.02 0.02 0.02 0.04c0 0.01 0 0.03 0 0.04c0 0.01-0.01 0.03-0.02 0.04c-0.01 0.01-0.02 0.02-0.03 0.03c-0.39 0.29-0.85 0.48-1.33 0.56c-0.48 0.08-0.97 0.04-1.43-0.11l-0.02-0.02z" />
			<path id="Layer" class="s7" d="m98.09 57.29c-0.03-0.02-0.05-0.05-0.06-0.09c-0.08-0.25-0.22-0.48-0.4-0.66c-0.18-0.18-0.41-0.32-0.66-0.4c-0.03-0.01-0.05-0.02-0.08-0.03c-0.02-0.02-0.04-0.04-0.05-0.06c-0.02-0.02-0.02-0.05-0.03-0.08c0-0.03 0-0.06 0-0.08c0.02-0.06 0.05-0.1 0.1-0.13c0.05-0.03 0.11-0.04 0.16-0.03c0.32 0.09 0.61 0.26 0.84 0.49c0.24 0.23 0.41 0.52 0.52 0.83c0.02 0.05 0.01 0.11-0.01 0.16c-0.03 0.05-0.07 0.09-0.12 0.11c-0.03 0.01-0.07 0.02-0.11 0.01c-0.04-0.01-0.07-0.02-0.1-0.05z" />
			<path id="Layer" class="s7" d="m91.64 54.88c0 0 0-0.03 0-0.04c-0.01-0.06 0-0.11 0.03-0.16c0.03-0.05 0.08-0.08 0.14-0.09c0.32-0.07 0.66-0.06 0.98 0.02c0.32 0.09 0.62 0.25 0.86 0.48c0.02 0.02 0.03 0.04 0.05 0.07c0.01 0.03 0.02 0.05 0.02 0.08c0 0.03-0.01 0.06-0.02 0.08c-0.01 0.03-0.03 0.05-0.05 0.07c-0.04 0.04-0.09 0.06-0.15 0.06c-0.06 0-0.11-0.02-0.15-0.06c-0.19-0.18-0.43-0.31-0.69-0.37c-0.25-0.07-0.52-0.07-0.78-0.01c-0.05 0.01-0.11 0.01-0.15-0.02c-0.05-0.02-0.08-0.07-0.1-0.11z" />
			<path id="Layer" fill-rule="evenodd" class="s12" d="m109.91 193.4l-0.06-0.03c-0.09-0.05-0.16-0.13-0.21-0.22c-0.05-0.09-0.07-0.19-0.06-0.29c-0.01-0.07 0-0.13 0.03-0.19c0.03-0.06 0.07-0.11 0.12-0.14c0.47-0.34 1.95 0.25 2.12 0.31c0.02 0.01 0.04 0.02 0.05 0.04c0.01 0.02 0.02 0.04 0.02 0.06c0 0.02-0.01 0.04-0.02 0.06c-0.01 0.02-0.03 0.03-0.05 0.04c-0.52 0.24-1.44 0.59-1.94 0.37zm1.62-0.46c-0.6-0.22-1.43-0.43-1.66-0.25c-0.02 0.02-0.04 0.04-0.05 0.07c-0.01 0.03-0.01 0.06-0.01 0.08c0 0.07 0.01 0.14 0.04 0.2c0.03 0.06 0.08 0.11 0.13 0.15c0.23 0.16 0.81 0.07 1.53-0.24h0.02z" />
			<path id="Layer" fill-rule="evenodd" class="s12" d="m111.67 192.97c-0.48-0.22-1.31-0.92-1.3-1.4c0-0.08 0.03-0.17 0.09-0.23c0.05-0.06 0.13-0.11 0.21-0.13c0.08-0.03 0.16-0.04 0.24-0.03c0.08 0.01 0.16 0.03 0.23 0.08c0.55 0.32 0.78 1.58 0.79 1.63c0 0.02 0 0.04-0.01 0.06c-0.01 0.02-0.02 0.03-0.03 0.05c-0.02 0.01-0.03 0.01-0.05 0.01c-0.02 0-0.04 0-0.05-0.01l-0.11-0.02zm-0.69-1.55c-0.08-0.03-0.17-0.03-0.25 0c-0.13 0.04-0.15 0.11-0.15 0.16c0 0.31 0.61 0.92 1.1 1.16c-0.07-0.49-0.3-0.94-0.65-1.29l-0.06-0.03z" />
			<path id="Layer" fill-rule="evenodd" class="s12" d="m86.21 195.41c-0.36 0.03-0.72-0.06-1.03-0.25c-0.08-0.06-0.14-0.14-0.18-0.22c-0.04-0.09-0.06-0.19-0.06-0.28c0-0.06 0.01-0.11 0.03-0.16c0.02-0.05 0.06-0.09 0.11-0.13c0.49-0.32 2.26 0.49 2.61 0.66c0.02 0.01 0.03 0.03 0.04 0.04c0.01 0.02 0.01 0.04 0.01 0.06c0 0.02-0.01 0.04-0.03 0.06c-0.01 0.02-0.03 0.03-0.05 0.03c-0.47 0.11-0.96 0.18-1.45 0.19zm-0.82-0.91c-0.07-0.01-0.15 0.01-0.21 0.04c-0.02 0.01-0.03 0.03-0.03 0.04c-0.01 0.02-0.01 0.04 0 0.06c0 0.07 0.02 0.14 0.05 0.2c0.03 0.06 0.07 0.11 0.13 0.16c0.3 0.23 1.03 0.26 1.98 0.09c-0.6-0.29-1.24-0.49-1.91-0.59z" />
			<path id="Layer" fill-rule="evenodd" class="s12" d="m87.63 195.23h-0.04c-0.58-0.24-1.76-1.2-1.66-1.7c0-0.11 0.1-0.24 0.37-0.28c1.05-0.13 1.44 1.78 1.46 1.86c0 0.02 0 0.04 0 0.06c-0.01 0.02-0.02 0.03-0.03 0.04c-0.01 0.01-0.03 0.01-0.04 0.02c-0.02 0-0.03 0-0.05 0zm-1.26-1.78h-0.07c-0.11 0-0.17 0.04-0.18 0.09c-0.05 0.29 0.76 1.05 1.36 1.38c-0.13-0.45-0.48-1.48-1.11-1.48z" />
			<path id="Layer" class="s7" d="m97.16 57.8l-0.74-0.48c0 0 0.22 0.76 0.74 0.48z" />
			<path id="Layer" class="s9" d="m109.14 74.99c0.47 0.72 0.86 1.37 1.24 2.06c0.39 0.69 0.75 1.38 1.1 2.08c0.69 1.4 1.32 2.84 1.88 4.32c0.57 1.49 1.04 3.01 1.42 4.55c0.1 0.38 0.17 0.79 0.26 1.18c0.09 0.39 0.17 0.78 0.23 1.19c0.06 0.4 0.13 0.77 0.19 1.22l0.07 0.71v0.7c-0.07 1.75-0.44 3.48-1.08 5.11c-0.59 1.53-1.32 3.01-2.16 4.42c-0.82 1.37-1.71 2.7-2.66 3.98c-0.96 1.27-1.98 2.49-3.07 3.65l-1.71-1.42c0.82-1.22 1.66-2.5 2.4-3.79c0.74-1.29 1.47-2.6 2.09-3.94c0.62-1.3 1.14-2.64 1.56-4.01c0.19-0.65 0.35-1.31 0.46-1.98c0.1-0.62 0.14-1.25 0.12-1.88v-0.44l-0.07-0.41c-0.05-0.3-0.14-0.68-0.21-1.01c-0.07-0.33-0.16-0.69-0.25-1.03c-0.09-0.34-0.18-0.68-0.29-1.02c-0.4-1.36-0.93-2.69-1.46-4.02c-0.53-1.33-1.16-2.63-1.82-3.91c-0.32-0.64-0.66-1.28-1.01-1.91c-0.35-0.63-0.72-1.27-1.05-1.81l3.81-2.58z" />
			<path id="Layer" class="s7" d="m108.47 72.1c2.16 0.52 4.69 7.02 4.69 7.02l-6.3 4.98c0 0-3.65-5.34-3.17-8.19c0.41-2.44 2.03-4.46 4.78-3.8z" />
			<path id="Layer" class="s12" d="m59.94 87.56l-0.13 8.05l-0.55-0.01l0.13-8.05l0.55 0.01z" />
			<path id="Layer" class="s12" d="m59.78 97.89l-0.05 2.74l-0.55-0.01l0.05-2.74l0.55 0.01z" />
			<path id="Layer" class="s8" d="m109.16 79.77l-8.52 49.66l-20.57 4.56l-19.36-8.3l0.82-50.37l47.64 4.46z" />
			<path id="Layer" class="s14" d="m104 83.73l-7.21 42.02l-16.28 3.61l4.42-47.42l19.07 1.79z" />
			<path id="Layer" class="s6" d="m98.48 96.3l-24.48-2.29l-0.2 6.31l23.7 2.22l-2.92 18.73l-13.45 1.4l-12.96-3.88l0.33-10.32l5.04 0.47l-0.16 4.95h0.01l8.34 2.49l8.66-0.9l1.12-7.19l-22.92-2.15l0.6-18.94l30.29 2.84l-0.97 6.24z" />
			<path id="Layer" class="s9" d="m102.13 108.82l3.11 3.36l-2.58 1.95l-2.79-2.05l2.26-3.26z" />
			<path id="Layer" class="s9" d="m107.38 108.68c-0.25 1.85-2.14 3.51-2.14 3.51l-3.11-3.37l3.81-1.2l1.44 1.07z" />
			<path id="Layer" class="s15" d="m166.51 184.71l3.89-1.27l2.42 9.19l-3.89 1.26l-2.42-9.19z" />
			<path id="Layer" class="s7" d="m173.63 192.13c1.38 0.51 3.31 0.81 6.62 0.45c0.74-0.08 1.31 1.53-0.33 2.06c-1.63 0.53-4.49 1.4-5.67 1.79c-1.93 0.62-2.62 0.95-4.14 1.47c-0.18 0.06-0.38 0.04-0.55-0.05c-0.17-0.09-0.3-0.24-0.36-0.42l-0.91-3.54c-0.02-0.07-0.01-0.15 0.03-0.22c0.04-0.07 0.1-0.12 0.17-0.14l4.38-1.41c0.24-0.08 0.51-0.07 0.75 0.01z" />
			<path id="Layer" class="s11" d="m166.51 184.71l3.89-1.27l1.25 4.74l-3.9 1.27l-1.24-4.74z" />
			<path id="Layer" class="s7" d="m157.02 91.65c0 0 5.52 33.36 7.18 45c1.79 12.74 8.83 50.02 8.83 50.02l-7.23 2c0 0-10.32-36.12-13.25-48.51c-3.17-13.45-10.16-48.51-10.16-48.51h14.62z" />
			<path id="Layer" class="s10" d="m148.15 105.33c2.83 7.07 3.15 19.09 2 24.02c-1.73-8.09-3.72-17.76-5.25-25.29c0.55-1.93 1.53-3.03 3.25 1.27z" />
			<path id="Layer" class="s12" d="m164.5 186.53l8.71-3.02l0.16 3.16l-7.74 2.13l-1.13-2.27z" />
			<path id="Layer" fill-rule="evenodd" class="s12" d="m174.48 192.35c-0.36 0.11-0.73 0.17-1.1 0.2c-0.02 0-0.03 0-0.05-0.01c-0.02-0.01-0.03-0.02-0.04-0.04c-0.01-0.02-0.01-0.03-0.01-0.05c0-0.02 0-0.04 0.01-0.05c0.1-0.13 0.96-1.24 1.49-1.21c0.06 0 0.12 0.02 0.17 0.05c0.05 0.03 0.09 0.08 0.12 0.13c0.06 0.08 0.1 0.17 0.11 0.27c0.01 0.1-0.01 0.2-0.06 0.28c-0.16 0.21-0.38 0.36-0.64 0.42zm-0.88 0c0.74-0.09 1.25-0.28 1.37-0.51c0.03-0.06 0.03-0.12 0.03-0.18c-0.01-0.06-0.03-0.12-0.06-0.17c-0.01-0.03-0.04-0.05-0.06-0.07c-0.03-0.02-0.05-0.03-0.08-0.03c-0.29-0.03-0.83 0.51-1.19 0.94v0.02z" />
			<path id="Layer" fill-rule="evenodd" class="s12" d="m173.42 192.54h-0.04c-0.02 0-0.03-0.01-0.04-0.02c-0.01-0.01-0.02-0.02-0.03-0.04c0-0.05-0.47-1.14-0.2-1.66c0.03-0.07 0.08-0.12 0.14-0.17c0.06-0.04 0.13-0.07 0.2-0.08c0.08-0.02 0.16-0.02 0.24 0.01c0.08 0.03 0.14 0.08 0.18 0.16c0.23 0.4-0.09 1.4-0.4 1.76l-0.04 0.05zm0-1.75c-0.04 0.01-0.07 0.03-0.1 0.05c-0.03 0.02-0.05 0.06-0.07 0.09c-0.09 0.44-0.04 0.91 0.15 1.32c0.27-0.41 0.37-0.91 0.28-1.4c-0.03-0.05-0.08-0.1-0.22-0.08l-0.04 0.01z" />
			<path id="Layer" class="s8" d="m156.17 58.04c0.13 0.27 0.32 0.66 0.49 1l0.55 1.04c0.36 0.7 0.75 1.39 1.14 2.07c0.78 1.37 1.61 2.7 2.48 3.98c0.85 1.24 1.78 2.43 2.79 3.55c0.92 1.03 1.96 1.94 3.1 2.71l-0.84-0.33c0.25 0.09 0.53 0.12 0.8 0.07c0.47-0.08 0.93-0.23 1.36-0.45c1.15-0.6 2.22-1.34 3.17-2.21c1.08-0.95 2.11-1.96 3.08-3.03c0.99-1.07 1.98-2.24 2.89-3.36l0.06-0.07c0.27-0.33 0.66-0.55 1.08-0.62c0.42-0.07 0.86 0.01 1.23 0.24c0.37 0.23 0.64 0.58 0.77 0.99c0.13 0.41 0.11 0.85-0.06 1.25c-0.66 1.5-1.43 2.95-2.29 4.34c-0.87 1.42-1.84 2.77-2.9 4.04c-1.15 1.39-2.5 2.61-4 3.63c-0.9 0.59-1.87 1.04-2.9 1.35c-1.23 0.36-2.53 0.41-3.79 0.15c-0.24-0.05-0.47-0.13-0.69-0.25l-0.15-0.08c-1.76-0.95-3.37-2.15-4.79-3.55c-1.34-1.29-2.57-2.7-3.67-4.2c-1.08-1.45-2.08-2.96-2.99-4.52c-0.45-0.78-0.87-1.56-1.29-2.36c-0.2-0.4-0.41-0.8-0.6-1.21c-0.19-0.41-0.37-0.8-0.58-1.29c-0.35-0.86-0.36-1.83-0.02-2.69c0.34-0.87 1.01-1.57 1.86-1.95c0.85-0.38 1.81-0.42 2.69-0.11c0.88 0.31 1.6 0.96 2.01 1.79l0.02 0.08z" />
			<path id="Layer" class="s10" d="m159.5 75.21c-0.43-0.38-0.83-0.76-1.23-1.16c-1.25-1.27-2.41-2.64-3.46-4.08c-1.03-1.4-1.98-2.86-2.84-4.37c-0.12-0.22-0.24-0.43-0.36-0.65c1.59-1.22 5.28-1.14 7.01 3.47c0.73 2.18 1.03 4.49 0.88 6.79z" />
			<path id="Layer" class="s15" d="m179.32 65.16c-0.28-0.21-0.51-0.48-0.66-0.8l-0.59-1.2c0.28-1.38 5.32-0.96 5.32-0.96l0.42 3.92l-3.54-0.55c-0.34-0.06-0.67-0.2-0.95-0.41z" />
			<path id="Layer" class="s15" d="m183.82 66.13l-0.42-3.91l2.69-1.19l0.67 2.81l-2.94 2.29z" />
			<path id="Layer" class="s15" d="m138.82 186.2h4.09l-0.53 9.49h-4.09l0.53-9.49z" />
			<path id="Layer" class="s7" d="m143.31 195.47c1.16 0.89 4.07 1.86 7.34 2.55c0.72 0.16 0.78 1.86-0.94 1.86c-1.72 0-5.88-0.13-7.12-0.13c-2.02 0-2.79 0.09-4.39 0.12c-0.19 0-0.37-0.08-0.51-0.22c-0.13-0.14-0.21-0.32-0.21-0.51l0.22-3.64c0-0.04 0.01-0.08 0.03-0.11c0.02-0.03 0.04-0.07 0.07-0.09c0.03-0.03 0.06-0.05 0.1-0.06c0.04-0.01 0.07-0.02 0.11-0.02h4.59c0.26 0 0.51 0.09 0.71 0.25z" />
			<path id="Layer" class="s11" d="m138.82 186.2h4.09l-0.28 4.89h-4.09l0.28-4.89z" />
			<path id="Layer" class="s7" d="m149.05 91.44c0 0-0.35 35.82-1.02 47.55c-0.73 12.85-3.63 50.92-3.63 50.92h-7.5c0 0-0.51-37.04-0.97-49.76c-0.49-13.82-1.02-48.72-1.02-48.72l14.13 0.01z" />
			<path id="Layer" class="s12" d="m136.2 187.51l8.94-0.44l-0.45 2.85h-8.1l-0.39-2.41z" />
			<path id="Layer" fill-rule="evenodd" class="s12" d="m144.05 195.93c-0.37-0.01-0.74-0.06-1.1-0.14c-0.02 0-0.04-0.01-0.05-0.03c-0.01-0.01-0.02-0.03-0.02-0.05c0-0.02 0-0.04 0.01-0.05c0.01-0.02 0.02-0.03 0.03-0.04c0.13-0.09 1.29-0.88 1.79-0.69c0.06 0.02 0.11 0.06 0.14 0.1c0.04 0.05 0.06 0.1 0.08 0.16c0.03 0.09 0.03 0.18 0.01 0.28c-0.02 0.09-0.06 0.17-0.13 0.25c-0.22 0.16-0.49 0.24-0.76 0.21zm-0.83-0.28c0.73 0.14 1.27 0.12 1.46-0.07c0.04-0.05 0.07-0.1 0.08-0.16c0.01-0.06 0.01-0.12-0.01-0.18c0-0.03-0.02-0.06-0.03-0.08c-0.02-0.02-0.04-0.04-0.07-0.05c-0.27-0.11-0.95 0.24-1.42 0.54z" />
			<path id="Layer" fill-rule="evenodd" class="s12" d="m142.98 195.79c-0.01 0.01-0.03 0.01-0.04 0c-0.01-0.01-0.03-0.02-0.04-0.03c-0.01-0.01-0.01-0.03-0.01-0.05c0-0.05-0.1-1.23 0.31-1.63c0.05-0.05 0.12-0.09 0.19-0.11c0.07-0.02 0.14-0.03 0.22-0.02c0.08 0 0.16 0.03 0.22 0.08c0.06 0.05 0.11 0.12 0.12 0.2c0.09 0.45-0.51 1.3-0.92 1.55c-0.02 0.01-0.03 0.01-0.05 0zm0.55-1.66c-0.08 0-0.15 0.03-0.2 0.08c-0.23 0.39-0.32 0.85-0.27 1.3c0.36-0.3 0.76-0.95 0.7-1.24c0-0.06-0.04-0.12-0.18-0.14h-0.04z" />
			<path id="Layer" class="s8" d="m133.08 58.6c-0.06-0.35-0.05-0.7 0.03-1.04c0.08-0.34 0.23-0.66 0.43-0.95c0.21-0.28 0.47-0.52 0.77-0.7c0.3-0.18 0.63-0.3 0.98-0.35h0.05c1.32-0.19 2.97-0.39 4.6-0.47c3.1-0.18 6.2-0.18 9.3 0c1.43 0.13 2.83 0.37 3.94 0.59h0.04c0.7 0.14 1.34 0.47 1.87 0.95c0.52 0.48 0.91 1.1 1.11 1.78c1.34 4.51 2.93 13.71 0.84 33.24h-21.91c-0.16-1.96 0.28-8.33-0.04-16.44c-0.31-5.57-0.98-11.12-2.01-16.61z" />
			<path id="Layer" class="s10" d="m137.06 62.47c-0.37 3.36-2.36 7.28-2.36 7.28c-0.39-3.77-0.94-7.33-1.4-9.95c1.27-0.94 4.13-0.69 3.76 2.67z" />
			<path id="Layer" class="s5" d="m148.78 55.05c0 0 1.12 2.21-2.91 4.42c-4.56-1.3-6.3-4.37-6.3-4.37" />
			<path id="Layer" class="s15" d="m145.87 57.62c-4.65 0.24-6.3-2.52-6.3-2.52c2.02-2 1.24-7.47 0.55-10.47l2.49 2.07l3.39 2.82c-0.1 0.45-0.17 0.91-0.22 1.37c-0.18 1.84 0.29 3.52 3 4.16c0 0 1 2.36-2.91 2.58z" />
			<path id="Layer" class="s5" d="m143.09 58.07l1.79-1.42l0.77 0.98l-2.57 0.43z" />
			<path id="Layer" class="s6" d="m140.9 58c-0.92-0.82-1.66-1.82-2.17-2.95l1.3-0.79c0 0 3.48 2.01 4.85 2.39c-0.47 0.99-0.74 2.06-0.79 3.16c-1.18-0.38-2.26-0.99-3.18-1.81z" />
			<path id="Layer" class="s5" d="m145.66 57.64l0.89-0.98l1.67 1.42l-2.56-0.43z" />
			<path id="Layer" class="s6" d="m147.79 59.48c-0.33-0.98-0.74-1.92-1.24-2.83c1.37-0.39 0.91-2.32 0.91-2.32l1.46 0.61c0 0 2.3 3.42-1.13 4.53z" />
			<path id="Layer" class="s8" d="m146.02 58.55c0.06 0.24 0 0.45-0.14 0.49c-0.14 0.03-0.29-0.13-0.35-0.36c-0.06-0.24 0-0.45 0.14-0.49c0.14-0.03 0.29 0.13 0.35 0.36z" />
			<path id="Layer" class="s11" d="m146 49.52c-0.1 0.45-0.17 0.91-0.22 1.37c-1.26-0.25-2.95-1.6-3.13-2.9c-0.06-0.43-0.08-0.86-0.04-1.29l3.39 2.82z" />
			<path id="Layer" class="s7" d="m147.82 41.35c0 0-1.92-4.52-1.32-5.19c0.6-0.67 2.91-1.25 3.74 0.35c1.04 1.98 0.74 5.99-0.94 5.59l-1.48-0.76z" />
			<path id="Layer" class="s15" d="m139.19 37.54c0.27-0.9 0.77-1.72 1.45-2.36c0.68-0.65 1.52-1.1 2.44-1.32c0.91-0.22 1.87-0.19 2.77 0.08c4.18 1.13 5.65 7.02 5.34 10.73c-0.06 0.96-0.39 1.89-0.94 2.69c-0.55 0.79-1.31 1.42-2.19 1.81c-0.88 0.39-1.85 0.54-2.81 0.42c-0.96-0.12-1.86-0.5-2.62-1.1c-2.35-1.82-2.65-4.19-3.52-8.18c-0.22-0.92-0.19-1.87 0.08-2.77z" />
			<path id="Layer" class="s7" d="m138.96 43.03c0 0-2.98-3.38-1.32-5.18c0.61-0.66 2.77-1.17 3.74 0.35c1.82 2.86 0.31 5.49-0.94 5.59l-1.48-0.76z" />
			<path id="Layer" class="s7" d="m134.88 36.95c3.38-0.61 5.12-3.01 6.98-4.67c2.83-2.52 8-2.39 6.55 2.3c-0.74 2.42-5.92 4.21-8.4 4.33c-2.75 0.14-4.67-1.11-5.12-1.96z" />
			<path id="Layer" class="s7" d="m135.32 38.63c2.36-0.71 2.74-2.08 4.02-3.32c2.06-2.03 4.42-2.88 3.78 0.55c-0.32 1.77-2.27 3.41-4.01 3.7c-1.96 0.33-3.42-0.4-3.79-0.94z" />
			<path id="Layer" class="s7" d="m148.26 32.17c1.93 0.16 3.38 3.88 2.63 4.9c-0.76 1.02-3.25-0.55-4.81-2.21c-1.14-1.21 0.26-2.85 2.19-2.69z" />
			<path id="Layer" class="s15" d="m138.56 41.86c1.12-0.3 2.48 1.03 3.04 2.05c0.64 1.13 0.36 2.29-0.9 2.08c-0.99-0.2-1.88-0.73-2.52-1.5c-0.81-0.98-0.73-2.32 0.39-2.62z" />
			<path id="Layer" class="s7" d="m145.37 40.73c-0.06-0.32 0.07-0.62 0.28-0.66c0.21-0.04 0.43 0.19 0.49 0.52c0.06 0.32-0.07 0.62-0.28 0.66c-0.21 0.04-0.43-0.19-0.49-0.52z" />
			<path id="Layer" class="s7" d="m149.37 39.63c0.22 0 0.43 0.23 0.48 0.55c0.05 0.33-0.09 0.64-0.3 0.64c-0.21 0-0.43-0.23-0.47-0.55c-0.03-0.33 0.08-0.64 0.29-0.64z" />
			<path id="Layer" class="s16" d="m147.94 40.57c0.55 0.96 1.22 1.83 1.99 2.61c-0.2 0.19-0.44 0.33-0.71 0.41c-0.26 0.08-0.54 0.11-0.81 0.07l-0.48-3.09z" />
			<path id="Layer" class="s7" d="m147.19 44.7c-0.38 0.01-0.76-0.07-1.12-0.21c-0.35-0.15-0.68-0.36-0.94-0.64c-0.02-0.02-0.02-0.04-0.02-0.07c0-0.03 0.01-0.05 0.03-0.07c0.02-0.02 0.04-0.03 0.07-0.02c0.03 0 0.05 0.01 0.07 0.03c0.3 0.29 0.66 0.51 1.05 0.64c0.39 0.13 0.81 0.17 1.22 0.12c0.01 0 0.03 0 0.04 0c0.01 0 0.02 0.01 0.03 0.02c0.01 0.01 0.02 0.02 0.03 0.03c0.01 0.01 0.01 0.02 0.01 0.04c0 0.01 0 0.03 0 0.04c0 0.01-0.01 0.02-0.02 0.03c-0.01 0.01-0.02 0.02-0.03 0.02c-0.01 0.01-0.02 0.01-0.04 0.01c-0.13 0.02-0.25 0.03-0.38 0.03z" />
			<path id="Layer" class="s7" d="m144.04 39.66c-0.03 0-0.06-0.01-0.09-0.03c-0.02-0.01-0.04-0.03-0.06-0.05c-0.02-0.02-0.03-0.04-0.04-0.07c-0.01-0.02-0.01-0.05-0.01-0.08c0-0.03 0.01-0.05 0.02-0.07c0.14-0.27 0.35-0.5 0.6-0.67c0.25-0.17 0.55-0.28 0.85-0.31c0.03 0 0.05 0 0.07 0.01c0.02 0.01 0.05 0.02 0.06 0.04c0.02 0.02 0.03 0.04 0.04 0.06c0.01 0.02 0.02 0.05 0.02 0.07c0 0.03 0 0.05-0.01 0.07c-0.01 0.02-0.02 0.05-0.04 0.07c-0.02 0.02-0.04 0.03-0.06 0.05c-0.02 0.01-0.05 0.02-0.07 0.02c-0.23 0.03-0.46 0.12-0.65 0.26c-0.19 0.14-0.35 0.32-0.46 0.53c-0.02 0.03-0.05 0.06-0.08 0.08c-0.03 0.02-0.07 0.02-0.11 0.02z" />
			<path id="Layer" class="s7" d="m150.61 38.81c-0.03 0-0.06-0.01-0.09-0.02c-0.03-0.02-0.05-0.04-0.07-0.06c-0.13-0.21-0.31-0.38-0.53-0.51c-0.21-0.13-0.45-0.21-0.7-0.23c-0.05 0-0.1-0.02-0.14-0.06c-0.04-0.04-0.06-0.09-0.06-0.14c0-0.05 0.02-0.1 0.06-0.14c0.04-0.04 0.09-0.06 0.14-0.06c0.31 0.02 0.61 0.12 0.88 0.27c0.27 0.16 0.5 0.38 0.67 0.64c0.01 0.02 0.02 0.04 0.03 0.07c0.01 0.02 0.01 0.05 0 0.08c0 0.03-0.01 0.05-0.03 0.07c-0.01 0.02-0.03 0.04-0.05 0.05c-0.03 0.02-0.07 0.03-0.11 0.03z" />
			<path id="Layer" class="s8" d="m137.91 62.04c0.04 0 0 0 0 0l-0.06 0.05l-0.13 0.12l-0.27 0.29c-0.19 0.2-0.4 0.41-0.59 0.63c-0.39 0.44-0.78 0.91-1.15 1.4c-0.74 0.99-1.4 2.04-1.98 3.14c-1.17 2.26-2.02 4.68-2.5 7.19c-0.12 0.52-0.2 1.06-0.23 1.59c-0.03 0.54 0 1.09 0.08 1.63c0.18 1.23 0.5 2.44 0.93 3.6c0.95 2.55 2.12 5.01 3.5 7.35l0.05 0.09c0.21 0.37 0.28 0.81 0.2 1.23c-0.08 0.42-0.31 0.8-0.64 1.06c-0.33 0.27-0.75 0.41-1.18 0.39c-0.43-0.01-0.83-0.18-1.15-0.47c-1.14-1.06-2.19-2.21-3.15-3.43c-0.97-1.24-1.85-2.55-2.62-3.92c-0.82-1.46-1.47-3.01-1.91-4.63c-0.25-0.88-0.4-1.78-0.47-2.69c-0.06-0.92-0.03-1.85 0.09-2.76c0.16-1.62 0.46-3.22 0.89-4.78c0.43-1.59 1-3.14 1.7-4.63c0.71-1.51 1.56-2.95 2.55-4.3c0.5-0.69 1.04-1.34 1.62-1.97c0.29-0.32 0.59-0.63 0.92-0.93l0.51-0.46l0.28-0.23l0.37-0.29c0.37-0.3 0.81-0.53 1.27-0.66c0.46-0.13 0.95-0.17 1.43-0.12c0.48 0.06 0.94 0.21 1.36 0.45c0.42 0.24 0.78 0.56 1.07 0.95c0.29 0.38 0.5 0.82 0.62 1.29c0.12 0.47 0.14 0.95 0.06 1.43c-0.07 0.48-0.24 0.93-0.5 1.34c-0.25 0.41-0.59 0.76-0.98 1.04v0.01z" />
			<path id="Layer" class="s15" d="m136.11 88.01l2.25-0.39l-2.09 4.73c0 0-3.72 0-3.54-1.94l0.44-0.59c0.72-0.95 1.77-1.6 2.95-1.81z" />
			<path id="Layer" class="s15" d="m141.4 89.99l-1.91 3.81l-3.22-1.47l2.09-4.72l3.04 2.37z" />
			<path id="Layer" class="s8" d="m199.77 12.91l2.04 37.26l-14.09 6.7l-15.35-2.79l-7.72-36.5l35.12-4.67z" />
			<path id="Layer" class="s17" d="m199.77 12.91l2.04 37.26l-14.09 6.7l-15.35-2.79l-7.72-36.5l35.12-4.67z" />
			<path id="Layer" class="s14" d="m196.69 16.62l1.73 31.52l-11.16 5.3l-4.63-34.96l14.06-1.86z" />
			<path id="Layer" class="s6" d="m196.09 45.27l-9.48 3.24l-10-0.65l-1.47-7.5l3.72-0.49l0.7 3.6l6.43 0.42l6.1-2.08l-1.03-14.7l-18.05 2.39l-0.9-4.58l22.33-2.97l1.64 23.33z" />
		</g>
	</g>
</svg>